<svg width="154" height="48" viewBox="0 0 154 48" fill="none" xmlns="http://www.w3.org/2000/svg">
<path fill-rule="evenodd" clip-rule="evenodd" d="M106.668 45.9879V18.0453H112.703C114.957 17.8859 120.001 18.7359 122.147 23.4107C122.538 24.2607 124.158 30.0511 123.599 34.9915C123.599 34.9981 123.6 35.0078 123.6 35.0204C123.605 35.6224 123.675 42.9612 116.949 45.5804C115.092 45.9879 107.159 45.9879 106.668 45.9879ZM112.033 41.2665C112.114 40.6528 112.067 28.7699 112.033 22.9052H114.656C115.451 23.0377 116.994 23.8209 117.797 25.8783C118.158 26.8025 118.186 27.8128 118.186 28.8048V36.9518C118.118 37.6912 117.788 39.0168 116.993 40.0529C116.197 41.0912 114.797 41.3213 113.489 41.3694C112.812 41.3943 112.292 41.4024 112.033 41.4024V41.2665Z" fill="#2C2C2C"/>
<path d="M78.1067 26.7295H72.8573C72.8573 26.349 72.8055 25.3958 72.5987 24.6269C72.3401 23.6657 71.3633 23.089 71.0691 22.9105C69.6719 22.2651 68.3924 23.089 68.0761 23.2281C66.1297 24.3638 67.1692 26.8419 67.3685 27.0795C68.3049 28.8142 74.2142 31.1324 74.7191 31.7174C80.1127 35.2825 77.7446 42.3588 77.1282 43.2033C72.7369 49.2193 66.0798 45.532 65.2418 45.1378C61.0158 42.2296 60.7694 38.7394 61.1744 37.3579H66.4321C65.7377 39.2102 66.9033 40.4606 67.1265 40.7847C70.4746 43.4706 72.409 40.5763 72.6074 40.0669C74.1947 37.2884 70.2514 34.9961 69.8298 34.8109C63.0593 32.7733 62.0792 27.6921 61.7976 27.0795C60.7667 20.5167 66.8588 18.4166 67.7027 18.1978C75.9505 16.7277 78.0753 23.2731 78.1067 26.7295Z" fill="#2C2C2C"/>
<path fill-rule="evenodd" clip-rule="evenodd" d="M41.4336 45.9008V17.818H49.6844C52.8606 17.5946 58.93 19.4292 57.7978 28.5541C57.7978 29.3145 57.5102 32.1265 54.2385 34.2392C54.5842 35.1781 57.469 42.4048 58.8683 45.9008H53.0656L49.3001 35.765H46.6457V45.9008H41.4336ZM46.5036 31.1295V22.7807H49.385C50.62 22.7931 52.9644 23.7535 52.4626 27.4956C52.4626 27.9428 51.9333 31.1295 49.385 31.1295H46.5036Z" fill="#2C2C2C"/>
<path d="M25.6112 17.1926L18.1641 45.8343H24.0439L28.2771 25.4635L32.5888 45.8343H38.5468L30.7858 17.1926H25.6112Z" fill="#2C2C2C"/>
<path d="M88.5106 18.0276L81.0635 45.9007H86.9433L91.1766 26.0765L95.4883 45.9007H101.446L93.6852 18.0276H88.5106Z" fill="#2C2C2C"/>
<path fill-rule="evenodd" clip-rule="evenodd" d="M139.34 22.6836L152.193 0.345215L153.499 5.4495L140.281 26.0628L145.572 45.0658H139.614L136.697 31.6523L132.554 38.113L131.069 45.0658H125.189L132.637 17.1927H137.811L139.34 22.6836ZM136.006 28.4777L135.303 25.2416L133.788 32.333L136.006 28.4777Z" fill="#2C2C2C"/>
<path d="M6.5848 17.6924H0.671875L8.23328 47.3154H13.6851L21.0085 17.6924H15.3126L10.8372 38.9771L6.5848 17.6924Z" fill="#2C2C2C"/>
</svg>
